# xmcd
# 
# Track frame offsets:
#     150
#     22592
#     47322
#     62007
#     78125
#     98990
#     118580
#     141835
#     154392
#     171230
#     188472
#     208087
#     229137
#     243250
# 
# Disc length: 3398
# 
# Revision: 26
# Processed by: cddbd v1.5.2PL0 Copyright (c) Steve Scherf et al.
# Submitted via: fre:ac v1.0.31
# 
DISCID=aa0d440e
DTITLE=Original Soundtrack - Armageddon
DYEAR=1998
DGENRE=Soundtrack
TTITLE0=I Don't Want To Miss A Thing
TTITLE1=Remember Me
TTITLE2=What Kind Of Love Are You On
TTITLE3=La Grange
TTITLE4=Roll Me Away
TTITLE5=When The Rainbow Comes
TTITLE6=Sweet Emotion
TTITLE7=Mister Big Time
TTITLE8=Come Together
TTITLE9=Wish I Were You
TTITLE10=Starseed
TTITLE11=Leaving On A Jet Plane
TTITLE12=Theme From Armageddon
TTITLE13=Animal Crackers
EXTD=YEAR: 1998 ID3G:   0
EXTT0=
EXTT1=
EXTT2=
EXTT3=
EXTT4=
EXTT5=
EXTT6=
EXTT7=
EXTT8=
EXTT9=
EXTT10=
EXTT11=
EXTT12=
EXTT13=
PLAYORDER=
